<mxfile host="app.diagrams.net" modified="2023-11-08T01:14:49.915Z" agent="Mozilla/5.0 (Windows NT 10.0; Win64; x64) AppleWebKit/537.36 (KHTML, like Gecko) Chrome/119.0.0.0 Safari/537.36" etag="YVDZdbLAQYrcRbW1E90-" version="22.0.8" type="device">
  <diagram name="Page-1" id="e7e014a7-5840-1c2e-5031-d8a46d1fe8dd">
    <mxGraphModel dx="1434" dy="833" grid="1" gridSize="10" guides="1" tooltips="1" connect="1" arrows="1" fold="1" page="1" pageScale="1" pageWidth="1169" pageHeight="826" background="none" math="0" shadow="0">
      <root>
        <mxCell id="0" />
        <mxCell id="1" parent="0" />
        <mxCell id="2" value="guru/staf pengaja" style="swimlane;whiteSpace=wrap" parent="1" vertex="1">
          <mxGeometry x="164.5" y="128" width="280" height="672" as="geometry" />
        </mxCell>
        <mxCell id="hyuBC3MO8Z6mbS1o9Sjm-47" style="edgeStyle=orthogonalEdgeStyle;rounded=0;orthogonalLoop=1;jettySize=auto;html=1;exitX=0.5;exitY=1;exitDx=0;exitDy=0;" edge="1" parent="2" source="5" target="hyuBC3MO8Z6mbS1o9Sjm-41">
          <mxGeometry relative="1" as="geometry" />
        </mxCell>
        <mxCell id="5" value="" style="ellipse;shape=startState;fillColor=#000000;strokeColor=#ff0000;" parent="2" vertex="1">
          <mxGeometry x="125" y="40" width="30" height="30" as="geometry" />
        </mxCell>
        <mxCell id="hyuBC3MO8Z6mbS1o9Sjm-41" value="memilih opsi absensi" style="rounded=0;whiteSpace=wrap;html=1;" vertex="1" parent="2">
          <mxGeometry x="80" y="102" width="120" height="60" as="geometry" />
        </mxCell>
        <mxCell id="hyuBC3MO8Z6mbS1o9Sjm-51" value="melakukan pengabsenan" style="rounded=0;whiteSpace=wrap;html=1;" vertex="1" parent="2">
          <mxGeometry x="80" y="212" width="120" height="60" as="geometry" />
        </mxCell>
        <mxCell id="hyuBC3MO8Z6mbS1o9Sjm-57" value="menekan tombol simpan/commit change" style="rounded=0;whiteSpace=wrap;html=1;" vertex="1" parent="2">
          <mxGeometry x="80" y="372" width="120" height="60" as="geometry" />
        </mxCell>
        <mxCell id="3" value="sistem" style="swimlane;whiteSpace=wrap" parent="1" vertex="1">
          <mxGeometry x="444.5" y="128" width="280" height="672" as="geometry" />
        </mxCell>
        <mxCell id="hyuBC3MO8Z6mbS1o9Sjm-49" value="menampilkan absensi kelas guru tersebut" style="rounded=0;whiteSpace=wrap;html=1;" vertex="1" parent="3">
          <mxGeometry x="80.5" y="102" width="120" height="60" as="geometry" />
        </mxCell>
        <mxCell id="hyuBC3MO8Z6mbS1o9Sjm-54" value="menampilkan commit" style="rounded=0;whiteSpace=wrap;html=1;" vertex="1" parent="3">
          <mxGeometry x="80.5" y="292" width="120" height="60" as="geometry" />
        </mxCell>
        <mxCell id="hyuBC3MO8Z6mbS1o9Sjm-65" style="edgeStyle=orthogonalEdgeStyle;rounded=0;orthogonalLoop=1;jettySize=auto;html=1;exitX=0.5;exitY=1;exitDx=0;exitDy=0;entryX=0.5;entryY=0;entryDx=0;entryDy=0;" edge="1" parent="3" source="hyuBC3MO8Z6mbS1o9Sjm-59" target="hyuBC3MO8Z6mbS1o9Sjm-64">
          <mxGeometry relative="1" as="geometry" />
        </mxCell>
        <mxCell id="hyuBC3MO8Z6mbS1o9Sjm-59" value="kembali ke menu utama" style="rounded=0;whiteSpace=wrap;html=1;" vertex="1" parent="3">
          <mxGeometry x="80.5" y="482" width="120" height="60" as="geometry" />
        </mxCell>
        <mxCell id="hyuBC3MO8Z6mbS1o9Sjm-64" value="" style="ellipse;html=1;shape=endState;fillColor=#000000;strokeColor=#ff0000;" vertex="1" parent="3">
          <mxGeometry x="125.5" y="602" width="30" height="30" as="geometry" />
        </mxCell>
        <mxCell id="4" value="database" style="swimlane;whiteSpace=wrap" parent="1" vertex="1">
          <mxGeometry x="724.5" y="128" width="195.5" height="672" as="geometry" />
        </mxCell>
        <mxCell id="hyuBC3MO8Z6mbS1o9Sjm-61" value="record data absensi" style="rounded=0;whiteSpace=wrap;html=1;" vertex="1" parent="4">
          <mxGeometry x="37.75" y="432" width="120" height="60" as="geometry" />
        </mxCell>
        <mxCell id="hyuBC3MO8Z6mbS1o9Sjm-50" style="edgeStyle=orthogonalEdgeStyle;rounded=0;orthogonalLoop=1;jettySize=auto;html=1;exitX=1;exitY=0.5;exitDx=0;exitDy=0;" edge="1" parent="1" source="hyuBC3MO8Z6mbS1o9Sjm-41" target="hyuBC3MO8Z6mbS1o9Sjm-49">
          <mxGeometry relative="1" as="geometry" />
        </mxCell>
        <mxCell id="hyuBC3MO8Z6mbS1o9Sjm-52" style="edgeStyle=orthogonalEdgeStyle;rounded=0;orthogonalLoop=1;jettySize=auto;html=1;exitX=0.5;exitY=1;exitDx=0;exitDy=0;entryX=1;entryY=0.5;entryDx=0;entryDy=0;" edge="1" parent="1" source="hyuBC3MO8Z6mbS1o9Sjm-49" target="hyuBC3MO8Z6mbS1o9Sjm-51">
          <mxGeometry relative="1" as="geometry" />
        </mxCell>
        <mxCell id="hyuBC3MO8Z6mbS1o9Sjm-55" style="edgeStyle=orthogonalEdgeStyle;rounded=0;orthogonalLoop=1;jettySize=auto;html=1;exitX=0.5;exitY=1;exitDx=0;exitDy=0;entryX=0;entryY=0.5;entryDx=0;entryDy=0;" edge="1" parent="1" source="hyuBC3MO8Z6mbS1o9Sjm-51" target="hyuBC3MO8Z6mbS1o9Sjm-54">
          <mxGeometry relative="1" as="geometry" />
        </mxCell>
        <mxCell id="hyuBC3MO8Z6mbS1o9Sjm-58" style="edgeStyle=orthogonalEdgeStyle;rounded=0;orthogonalLoop=1;jettySize=auto;html=1;exitX=0.5;exitY=1;exitDx=0;exitDy=0;entryX=1;entryY=0.5;entryDx=0;entryDy=0;" edge="1" parent="1" source="hyuBC3MO8Z6mbS1o9Sjm-54" target="hyuBC3MO8Z6mbS1o9Sjm-57">
          <mxGeometry relative="1" as="geometry" />
        </mxCell>
        <mxCell id="hyuBC3MO8Z6mbS1o9Sjm-60" style="edgeStyle=orthogonalEdgeStyle;rounded=0;orthogonalLoop=1;jettySize=auto;html=1;exitX=0.5;exitY=1;exitDx=0;exitDy=0;entryX=0;entryY=0.5;entryDx=0;entryDy=0;" edge="1" parent="1" source="hyuBC3MO8Z6mbS1o9Sjm-57" target="hyuBC3MO8Z6mbS1o9Sjm-59">
          <mxGeometry relative="1" as="geometry" />
        </mxCell>
        <mxCell id="hyuBC3MO8Z6mbS1o9Sjm-63" style="edgeStyle=orthogonalEdgeStyle;rounded=0;orthogonalLoop=1;jettySize=auto;html=1;exitX=0.5;exitY=1;exitDx=0;exitDy=0;" edge="1" parent="1" source="hyuBC3MO8Z6mbS1o9Sjm-57" target="hyuBC3MO8Z6mbS1o9Sjm-61">
          <mxGeometry relative="1" as="geometry" />
        </mxCell>
        <mxCell id="hyuBC3MO8Z6mbS1o9Sjm-67" value="" style="group" vertex="1" connectable="0" parent="1">
          <mxGeometry x="747.25" y="180" width="150" height="100" as="geometry" />
        </mxCell>
        <mxCell id="hyuBC3MO8Z6mbS1o9Sjm-43" value="note" style="shape=umlFrame;whiteSpace=wrap;html=1;pointerEvents=0;container=1;" vertex="1" parent="hyuBC3MO8Z6mbS1o9Sjm-67">
          <mxGeometry x="5.5" width="130" height="100" as="geometry" />
        </mxCell>
        <mxCell id="hyuBC3MO8Z6mbS1o9Sjm-46" value="untuk kelas sudah&lt;br&gt;di set oleh admin.&lt;br&gt;jadi staf guru dibuatkan&lt;br&gt;account oleh admin" style="text;html=1;align=center;verticalAlign=middle;resizable=0;points=[];autosize=1;strokeColor=none;fillColor=none;" vertex="1" parent="hyuBC3MO8Z6mbS1o9Sjm-67">
          <mxGeometry y="30" width="150" height="70" as="geometry" />
        </mxCell>
        <mxCell id="hyuBC3MO8Z6mbS1o9Sjm-68" style="edgeStyle=orthogonalEdgeStyle;rounded=0;orthogonalLoop=1;jettySize=auto;html=1;exitX=1;exitY=0;exitDx=0;exitDy=0;entryX=0.502;entryY=-0.01;entryDx=0;entryDy=0;entryPerimeter=0;dashed=1;" edge="1" parent="1" source="hyuBC3MO8Z6mbS1o9Sjm-41" target="hyuBC3MO8Z6mbS1o9Sjm-43">
          <mxGeometry relative="1" as="geometry" />
        </mxCell>
      </root>
    </mxGraphModel>
  </diagram>
</mxfile>
